<svg width="19" height="19" viewBox="0 0 19 19" fill="none" xmlns="http://www.w3.org/2000/svg">
<circle cx="9.45098" cy="9.45098" r="8.6634" stroke="#006DC6" stroke-width="1.57516"/>
<path d="M13.1262 8.92514H9.97586V5.77481C9.97586 5.63556 9.92054 5.50201 9.82207 5.40354C9.72361 5.30507 9.59006 5.24976 9.4508 5.24976C9.31155 5.24976 9.178 5.30507 9.07953 5.40354C8.98107 5.50201 8.92575 5.63556 8.92575 5.77481V8.92514H5.77542C5.63617 8.92514 5.50262 8.98046 5.40415 9.07892C5.30568 9.17739 5.25037 9.31094 5.25037 9.45019C5.25037 9.58945 5.30568 9.723 5.40415 9.82146C5.50262 9.91993 5.63617 9.97525 5.77542 9.97525H8.92575V13.1256C8.92575 13.2648 8.98107 13.3984 9.07953 13.4968C9.178 13.5953 9.31155 13.6506 9.4508 13.6506C9.59006 13.6506 9.72361 13.5953 9.82207 13.4968C9.92054 13.3984 9.97586 13.2648 9.97586 13.1256V9.97525H13.1262C13.2654 9.97525 13.399 9.91993 13.4975 9.82146C13.5959 9.723 13.6512 9.58945 13.6512 9.45019C13.6512 9.31094 13.5959 9.17739 13.4975 9.07892C13.399 8.98046 13.2654 8.92514 13.1262 8.92514Z" fill="#006DC6"/>
</svg>
