<?xml version="1.0" encoding="utf-8"?>
<!-- Uploaded to: SVG Repo, www.svgrepo.com, Generator: SVG Repo Mixer Tools -->
<svg fill="#000000" version="1.1" id="_x31_" xmlns="http://www.w3.org/2000/svg" xmlns:xlink="http://www.w3.org/1999/xlink" 
	 viewBox="0 0 128 128" xml:space="preserve">
<path id="_x33__38_" d="M84.8,92c-2.8-1.1-4-1.7-4-3c0-1.1,1-2.1,3.1-2.1c2.1,0,3.7,0.6,4.5,1l1.1-3.9c-1-0.4-2.2-0.8-3.8-1v-3.2
	h-5.6v3.7c-2.8,1-4.4,3.2-4.4,5.9c0,3.1,2.3,5.1,5.9,6.4c2.6,0.9,3.6,1.7,3.6,3c0,1.4-1.2,2.3-3.4,2.3c-2.1,0-4.1-0.7-5.4-1.3l-1,4
	c1,0.5,2.7,1,4.6,1.2v3.1h5.6v-3.6c3.1-1.1,4.6-3.4,4.6-6.1C90.4,95.4,88.6,93.4,84.8,92z"/>
<path id="_x32__67_" d="M90.7,43l-0.8,0L60.4,13.6c-0.8-0.8-2-0.8-2.8,0l-32,32c-0.1,0.1-0.2,0.3-0.3,0.4c0,0,0,0.1-0.1,0.1
	c-0.1,0.2-0.1,0.3-0.2,0.5c0,0,0,0,0,0c0,0.1,0,0.2,0,0.4v40c0,1.1,0.9,2,2,2h36v26h39.7V55C102.7,48.4,97.3,43,90.7,43z M59,17.8
	L84.2,43l-25,0h0h0c-0.1,0-0.2,0-0.2,0v0c-2.4,0-4.7,0.8-6.5,2H31.8L59,17.8z M48.6,49c-1,1.8-1.6,3.8-1.6,6v11.6L29.4,49H48.6z
	 M29,54.3l15.2,15.2L29,82.8V54.3z M63,85H32.1L59,61.5l4,3.5V85z M98.7,111H67V55c0-4.3-3.7-7.9-8-8h31.7c4.4,0,8,3.6,8,8V111z"/>
<rect id="_x31__68_" x="70.8" y="55" width="24" height="4"/>
<rect id="_x31__67_" x="70.8" y="63" width="24" height="4"/>
<rect id="_x31__66_" x="70.8" y="71" width="24" height="4"/>
</svg>