<svg width="22" height="22" viewBox="0 0 22 22" fill="none" xmlns="http://www.w3.org/2000/svg">
<path d="M20.1667 8.47949H1.83337C1.45754 8.47949 1.14587 8.16783 1.14587 7.79199C1.14587 7.41616 1.45754 7.10449 1.83337 7.10449H20.1667C20.5425 7.10449 20.8542 7.41616 20.8542 7.79199C20.8542 8.16783 20.5425 8.47949 20.1667 8.47949Z" fill="black"/>
<path d="M7.33333 15.8125H5.5C5.12417 15.8125 4.8125 15.5008 4.8125 15.125C4.8125 14.7492 5.12417 14.4375 5.5 14.4375H7.33333C7.70917 14.4375 8.02083 14.7492 8.02083 15.125C8.02083 15.5008 7.70917 15.8125 7.33333 15.8125Z" fill="black"/>
<path d="M13.2917 15.8125H9.625C9.24917 15.8125 8.9375 15.5008 8.9375 15.125C8.9375 14.7492 9.24917 14.4375 9.625 14.4375H13.2917C13.6675 14.4375 13.9792 14.7492 13.9792 15.125C13.9792 15.5008 13.6675 15.8125 13.2917 15.8125Z" fill="black"/>
<path d="M16.0967 19.4788H5.90337C2.25504 19.4788 1.14587 18.3788 1.14587 14.7672V7.23217C1.14587 3.62051 2.25504 2.52051 5.90337 2.52051H16.0875C19.7359 2.52051 20.845 3.62051 20.845 7.23217V14.758C20.8542 18.3788 19.745 19.4788 16.0967 19.4788ZM5.90337 3.89551C3.02504 3.89551 2.52087 4.39051 2.52087 7.23217V14.758C2.52087 17.5997 3.02504 18.0947 5.90337 18.0947H16.0875C18.9659 18.0947 19.47 17.5997 19.47 14.758V7.23217C19.47 4.39051 18.9659 3.89551 16.0875 3.89551H5.90337Z" fill="black"/>
</svg>
