<svg width="31" height="30" viewBox="0 0 31 30" fill="none" xmlns="http://www.w3.org/2000/svg">
<path d="M28.1309 10.6915L28.1309 5.07057C28.1309 3.32485 27.3385 2.61914 25.3699 2.61914L20.368 2.61914C18.3994 2.61914 17.6071 3.32485 17.6071 5.07057L17.6071 10.6791C17.6071 12.4372 18.3994 13.1306 20.368 13.1306L25.3699 13.1306C27.3385 13.1429 28.1309 12.4372 28.1309 10.6915Z" stroke="white" stroke-width="1.625" stroke-linecap="round" stroke-linejoin="round"/>
<path d="M28.1309 24.62L28.1309 19.6181C28.1309 17.6496 27.3385 16.8572 25.3699 16.8572L20.368 16.8572C18.3994 16.8572 17.6071 17.6496 17.6071 19.6181L17.6071 24.62C17.6071 26.5886 18.3994 27.381 20.368 27.381L25.3699 27.381C27.3385 27.381 28.1309 26.5886 28.1309 24.62Z" stroke="#FDFF96" stroke-width="1.625" stroke-linecap="round" stroke-linejoin="round"/>
<path d="M13.8928 10.6915L13.8928 5.07057C13.8928 3.32485 13.1004 2.61914 11.1319 2.61914L6.12997 2.61914C4.1614 2.61914 3.36902 3.32485 3.36902 5.07057L3.36902 10.6791C3.36902 12.4372 4.1614 13.1306 6.12997 13.1306L11.1319 13.1306C13.1004 13.1429 13.8928 12.4372 13.8928 10.6915Z" stroke="#FDFF96" stroke-width="1.625" stroke-linecap="round" stroke-linejoin="round"/>
<path d="M13.8928 24.62L13.8928 19.6181C13.8928 17.6496 13.1004 16.8572 11.1319 16.8572L6.12997 16.8572C4.1614 16.8572 3.36902 17.6496 3.36902 19.6181L3.36902 24.62C3.36902 26.5886 4.1614 27.381 6.12997 27.381L11.1319 27.381C13.1004 27.381 13.8928 26.5886 13.8928 24.62Z" stroke="white" stroke-width="1.625" stroke-linecap="round" stroke-linejoin="round"/>
</svg>
