<svg width="20" height="20" viewBox="0 0 20 20" fill="none" xmlns="http://www.w3.org/2000/svg">
<path d="M19 10C19 14.9706 14.9706 19 10 19C8.22894 19 6.57736 18.4884 5.18497 17.605L1 19L2.39499 14.815C1.51156 13.4226 1 11.7711 1 10C1 5.02944 5.02944 1 10 1C14.9706 1 19 5.02944 19 10Z" stroke="#A9A8AA" stroke-width="1.5" stroke-linecap="round" stroke-linejoin="round"/>
<path d="M11.6924 10.4222C11.6924 9.7212 11.1241 9.15294 10.4232 9.15294C9.72218 9.15294 9.15393 9.7212 9.15393 10.4222C9.15393 11.1232 9.72218 11.6914 10.4232 11.6914C11.1241 11.6914 11.6924 11.1232 11.6924 10.4222Z" fill="#A9A8AA"/>
<path d="M16.6155 10.4222C16.6155 9.7212 16.0472 9.15294 15.3463 9.15294C14.6453 9.15294 14.077 9.7212 14.077 10.4222C14.077 11.1232 14.6453 11.6914 15.3463 11.6914C16.0472 11.6914 16.6155 11.1232 16.6155 10.4222Z" fill="#A9A8AA"/>
<path d="M6.7693 10.4222C6.7693 9.7212 6.20104 9.15294 5.50007 9.15294C4.79909 9.15294 4.23083 9.7212 4.23083 10.4222C4.23083 11.1232 4.79909 11.6914 5.50007 11.6914C6.20104 11.6914 6.7693 11.1232 6.7693 10.4222Z" fill="#A9A8AA"/>
</svg>
