<svg width="18" height="18" viewBox="0 0 18 18" fill="none" xmlns="http://www.w3.org/2000/svg">
<path d="M14.3333 1C13.6261 1 12.9478 1.28095 12.4477 1.78105C11.9476 2.28115 11.6667 2.95942 11.6667 3.66667V14.3333C11.6667 15.0406 11.9476 15.7189 12.4477 16.219C12.9478 16.719 13.6261 17 14.3333 17C15.0406 17 15.7189 16.719 16.219 16.219C16.719 15.7189 17 15.0406 17 14.3333C17 13.6261 16.719 12.9478 16.219 12.4477C15.7189 11.9476 15.0406 11.6667 14.3333 11.6667H3.66667C2.95942 11.6667 2.28115 11.9476 1.78105 12.4477C1.28095 12.9478 1 13.6261 1 14.3333C1 15.0406 1.28095 15.7189 1.78105 16.219C2.28115 16.719 2.95942 17 3.66667 17C4.37391 17 5.05219 16.719 5.55229 16.219C6.05238 15.7189 6.33333 15.0406 6.33333 14.3333V3.66667C6.33333 2.95942 6.05238 2.28115 5.55229 1.78105C5.05219 1.28095 4.37391 1 3.66667 1C2.95942 1 2.28115 1.28095 1.78105 1.78105C1.28095 2.28115 1 2.95942 1 3.66667C1 4.37391 1.28095 5.05219 1.78105 5.55229C2.28115 6.05238 2.95942 6.33333 3.66667 6.33333H14.3333C15.0406 6.33333 15.7189 6.05238 16.219 5.55229C16.719 5.05219 17 4.37391 17 3.66667C17 2.95942 16.719 2.28115 16.219 1.78105C15.7189 1.28095 15.0406 1 14.3333 1Z" stroke="#14181F" stroke-width="2" stroke-linecap="round" stroke-linejoin="round"/>
</svg>
