<svg width="167" height="194" viewBox="0 0 167 194" fill="none" xmlns="http://www.w3.org/2000/svg">
<path d="M171.926 -12.6353C171.926 -2.88846 179.815 5.01305 189.547 5.01305C199.278 5.01305 207.167 -2.88846 207.167 -12.6353V-32.5779" stroke="white" stroke-opacity="0.1" stroke-width="12" stroke-linecap="round" stroke-linejoin="round"/>
<path d="M204.524 256.686C207.838 256.686 210.524 254 210.524 250.686C210.524 247.373 207.838 244.686 204.524 244.686V256.686ZM173.577 304.533C176.891 304.533 179.577 301.846 179.577 298.533C179.577 295.219 176.891 292.533 173.577 292.533V304.533ZM114.612 387.803C117.925 387.803 120.612 385.117 120.612 381.803C120.612 378.49 117.925 375.803 114.612 375.803V387.803ZM179.734 323.376C179.734 320.062 177.047 317.376 173.734 317.376C170.42 317.376 167.734 320.062 167.734 323.376H179.734ZM127.344 139.812C127.344 136.498 124.657 133.812 121.344 133.812C118.03 133.812 115.344 136.498 115.344 139.812H127.344ZM198.525 225.383C198.525 228.697 201.211 231.383 204.525 231.383C207.839 231.383 210.525 228.697 210.525 225.383H198.525ZM204.524 244.686H151.828V256.686H204.524V244.686ZM151.828 244.686C135.261 244.686 121.777 258.054 121.777 274.609H133.777C133.777 264.741 141.829 256.686 151.828 256.686V244.686ZM121.777 274.609C121.777 291.165 135.261 304.533 151.828 304.533V292.533C141.829 292.533 133.777 284.478 133.777 274.609H121.777ZM151.828 304.533H173.577V292.533H151.828V304.533ZM114.612 375.803H111.47V387.803H114.612V375.803ZM111.47 375.803C105.522 375.803 100.688 370.973 100.688 365.004H88.6885C88.6885 377.587 98.8819 387.803 111.47 387.803V375.803ZM100.688 365.004C100.688 359.03 105.523 354.201 111.47 354.201V342.201C98.8811 342.201 88.6885 352.418 88.6885 365.004H100.688ZM111.47 354.201H148.938V342.201H111.47V354.201ZM148.938 354.201C165.952 354.201 179.734 340.394 179.734 323.376H167.734C167.734 333.78 159.312 342.201 148.938 342.201V354.201ZM115.344 139.812V158.691H127.344V139.812H115.344ZM115.344 158.691C115.344 184.995 136.644 206.329 162.934 206.329V194.329C143.285 194.329 127.344 178.38 127.344 158.691H115.344ZM162.934 206.329H179.5V194.329H162.934V206.329ZM179.5 206.329C190.001 206.329 198.525 214.853 198.525 225.383H210.525C210.525 208.239 196.641 194.329 179.5 194.329V206.329Z" fill="white" fill-opacity="0.1"/>
<path fill-rule="evenodd" clip-rule="evenodd" d="M179.561 94.2915C186.049 94.2915 191.308 89.0321 191.308 82.5443C191.308 76.0565 186.049 70.7971 179.561 70.7971C173.073 70.7971 167.814 76.0565 167.814 82.5443C167.814 89.0321 173.073 94.2915 179.561 94.2915Z" stroke="white" stroke-opacity="0.1" stroke-width="12" stroke-linecap="round" stroke-linejoin="round"/>
<path fill-rule="evenodd" clip-rule="evenodd" d="M60.9142 61.1056C71.1325 61.1056 79.416 52.8221 79.416 42.6038C79.416 32.3856 71.1325 24.1021 60.9142 24.1021C50.6959 24.1021 42.4124 32.3856 42.4124 42.6038C42.4124 52.8221 50.6959 61.1056 60.9142 61.1056Z" stroke="white" stroke-opacity="0.1" stroke-width="12" stroke-linecap="round" stroke-linejoin="round"/>
<path d="M61.0619 82.8381C83.85 82.8381 102.324 64.6275 102.324 42.1636C102.324 19.6996 83.85 1.48901 61.0619 1.48901C38.2737 1.48901 19.7999 19.6996 19.7999 42.1636" stroke="white" stroke-opacity="0.1" stroke-width="12" stroke-linecap="round" stroke-linejoin="round"/>
<path d="M103.351 88.7117C94.0246 88.7117 86.4644 96.2719 86.4644 105.598C86.4644 114.925 94.0246 122.485 103.351 122.485C112.677 122.485 120.237 114.925 120.237 105.598V88.7117" stroke="white" stroke-opacity="0.1" stroke-width="12" stroke-linecap="round" stroke-linejoin="round"/>
<path d="M108.491 -10.1114C108.491 2.29638 118.484 12.355 130.811 12.355C143.138 12.355 153.131 2.29638 153.131 -10.1114C153.131 -22.5193 143.138 -32.5779 130.811 -32.5779H108.491" stroke="white" stroke-opacity="0.1" stroke-width="12" stroke-linecap="round" stroke-linejoin="round"/>
<path d="M27.875 221.626C17.0891 221.626 8.34537 212.975 8.34537 202.304C8.34537 191.633 17.0891 182.983 27.875 182.983C38.661 182.983 47.4047 191.633 47.4047 202.304L47.4047 261.395" stroke="white" stroke-opacity="0.1" stroke-width="12" stroke-linecap="round" stroke-linejoin="round"/>
<path d="M25.2319 134.146C15.9057 134.146 8.34537 141.594 8.34537 150.782C8.34537 159.97 15.9057 167.418 25.2319 167.418C34.5581 167.418 42.1185 159.97 42.1185 150.782L42.1185 82.8381" stroke="white" stroke-opacity="0.1" stroke-width="12" stroke-linecap="round" stroke-linejoin="round"/>
<path d="M209.136 82.8378C209.136 66.1319 195.809 52.5889 179.371 52.5889C162.932 52.5889 149.606 66.1319 149.606 82.8378C149.606 99.5437 162.932 113.087 179.371 113.087H257.386" stroke="white" stroke-opacity="0.1" stroke-width="12" stroke-linecap="round" stroke-linejoin="round"/>
<path fill-rule="evenodd" clip-rule="evenodd" d="M85.1432 222.923C75.4927 222.923 67.6693 215.113 67.6693 205.478V155.788C67.6693 146.153 75.4927 138.343 85.1432 138.343V138.343C94.7937 138.343 102.617 146.153 102.617 155.788V205.478C102.617 215.113 94.7937 222.923 85.1432 222.923V222.923Z" stroke="white" stroke-opacity="0.1" stroke-width="12" stroke-linecap="round" stroke-linejoin="round"/>
<path d="M178.974 172.997H164.529C154.827 172.997 146.963 165.108 146.963 155.377C146.963 145.645 154.827 137.756 164.529 137.756H193.419C203.12 137.756 210.985 145.645 210.985 155.377V156.942C210.985 165.809 203.819 172.997 194.979 172.997" stroke="white" stroke-opacity="0.1" stroke-width="12" stroke-linecap="round" stroke-linejoin="round"/>
<path d="M205.112 26.7454H165.558C140.529 26.7454 120.238 47.1254 120.238 72.2656" stroke="white" stroke-opacity="0.1" stroke-width="12" stroke-linecap="round" stroke-linejoin="round"/>
<path d="M19.9468 62.8679C19.9468 65.603 19.9468 100.032 19.9468 116.905" stroke="white" stroke-opacity="0.1" stroke-width="12" stroke-linecap="round" stroke-linejoin="round"/>
</svg>
