<svg width="31" height="30" viewBox="0 0 31 30" fill="none" xmlns="http://www.w3.org/2000/svg">
<path d="M17.1071 11.5953L2.869 11.5953C2.36138 11.5953 1.94043 11.1743 1.94043 10.6667C1.94043 10.1591 2.36138 9.73816 2.869 9.73816L17.1071 9.73816C17.6147 9.73816 18.0357 10.1591 18.0357 10.6667C18.0357 11.1743 17.6147 11.5953 17.1071 11.5953Z" fill="white"/>
<path d="M10.2976 21.5L7.82139 21.5C7.31377 21.5 6.89282 21.0791 6.89282 20.5715C6.89282 20.0638 7.31377 19.6429 7.82139 19.6429L10.2976 19.6429C10.8052 19.6429 11.2262 20.0638 11.2262 20.5715C11.2262 21.0791 10.8052 21.5 10.2976 21.5Z" fill="white"/>
<path d="M18.3452 21.5L13.3928 21.5C12.8852 21.5 12.4642 21.0791 12.4642 20.5715C12.4642 20.0638 12.8852 19.6429 13.3928 19.6429L18.3452 19.6429C18.8528 19.6429 19.2738 20.0638 19.2738 20.5715C19.2738 21.0791 18.8528 21.5 18.3452 21.5Z" fill="white"/>
<path d="M22.1338 26.4524L8.36614 26.4524C3.43852 26.4524 1.94043 24.9667 1.94043 20.0886L1.94043 9.91142C1.94043 5.03332 3.43852 3.54761 8.36614 3.54761L17.1071 3.54761C17.6147 3.54761 18.0357 3.96856 18.0357 4.47618C18.0357 4.9838 17.6147 5.40475 17.1071 5.40475L8.36614 5.40475C4.47852 5.40475 3.79757 6.07332 3.79757 9.91142L3.79757 20.0762C3.79757 23.9143 4.47852 24.5828 8.36614 24.5828L22.1214 24.5828C26.009 24.5828 26.69 23.9143 26.69 20.0762L26.69 15.0248C26.69 14.5171 27.1109 14.0962 27.6185 14.0962C28.1261 14.0962 28.5471 14.5171 28.5471 15.0248L28.5471 20.0762C28.5595 24.9667 27.0614 26.4524 22.1338 26.4524Z" fill="white"/>
<path d="M27.6309 8.8096L20.8214 8.8096C20.3138 8.8096 19.8928 8.38864 19.8928 7.88103C19.8928 7.37341 20.3138 6.95245 20.8214 6.95245L27.6309 6.95245C28.1385 6.95245 28.5595 7.37341 28.5595 7.88103C28.5595 8.38864 28.1385 8.8096 27.6309 8.8096Z" fill="#FDFF96"/>
<path d="M24.2262 12.2143C23.7186 12.2143 23.2976 11.7933 23.2976 11.2857L23.2976 4.47618C23.2976 3.96856 23.7186 3.54761 24.2262 3.54761C24.7338 3.54761 25.1548 3.96856 25.1548 4.47618L25.1548 11.2857C25.1548 11.7933 24.7338 12.2143 24.2262 12.2143Z" fill="#FDFF96"/>
</svg>
