<svg width="16" height="5" viewBox="0 0 16 5" fill="none" xmlns="http://www.w3.org/2000/svg">
<path d="M2.01514 1.00753C2.56741 1.0117 3.01173 1.46279 3.00755 2.01506C3.00338 2.56733 2.55229 3.01165 2.00002 3.00747C1.44775 3.00329 1.00343 2.5522 1.00761 1.99993C1.01179 1.44767 1.46287 1.00335 2.01514 1.00753Z" stroke="#14181F" stroke-width="2" stroke-linecap="round" stroke-linejoin="round"/>
<path d="M8.01497 1.0529C8.56724 1.05708 9.01156 1.50816 9.00738 2.06043C9.0032 2.6127 8.55212 3.05702 7.99985 3.05284C7.44758 3.04867 7.00326 2.59758 7.00744 2.04531C7.01161 1.49304 7.4627 1.04872 8.01497 1.0529Z" stroke="#14181F" stroke-width="2" stroke-linecap="round" stroke-linejoin="round"/>
<path d="M14.0148 1.09827C14.5671 1.10245 15.0114 1.55354 15.0072 2.10581C15.003 2.65808 14.5519 3.10239 13.9997 3.09822C13.4474 3.09404 13.0031 2.64295 13.0073 2.09068C13.0114 1.53841 13.4625 1.0941 14.0148 1.09827Z" stroke="#14181F" stroke-width="2" stroke-linecap="round" stroke-linejoin="round"/>
</svg>
