<svg width="31" height="30" viewBox="0 0 31 30" fill="none" xmlns="http://www.w3.org/2000/svg">
<path d="M12.6547 17.1667C12.6547 18.3677 13.5833 19.3334 14.7223 19.3334L17.0499 19.3334C18.0404 19.3334 18.8451 18.4915 18.8451 17.4391C18.8451 16.3124 18.3499 15.9039 17.6194 15.6439L13.8928 14.3439C13.1623 14.0839 12.6671 13.6877 12.6671 12.5486C12.6671 11.5086 13.4718 10.6544 14.4623 10.6544L16.7899 10.6544C17.9289 10.6544 18.8575 11.6201 18.8575 12.821" stroke="white" stroke-width="1.625" stroke-linecap="round" stroke-linejoin="round"/>
<path d="M15.7499 9.42859L15.7499 20.5714" stroke="white" stroke-width="1.625" stroke-linecap="round" stroke-linejoin="round"/>
<path d="M28.1309 15.0001C28.1309 21.8344 22.5843 27.381 15.75 27.381C8.91568 27.381 3.36902 21.8344 3.36902 15.0001C3.36902 8.16581 8.91568 2.61914 15.75 2.61914" stroke="white" stroke-width="1.625" stroke-linecap="round" stroke-linejoin="round"/>
<path d="M21.9404 3.85718L21.9404 8.80956L26.8928 8.80956" stroke="#FDFF96" stroke-width="1.625" stroke-linecap="round" stroke-linejoin="round"/>
<path d="M28.1309 2.61914L21.9404 8.80962" stroke="#FDFF96" stroke-width="1.625" stroke-linecap="round" stroke-linejoin="round"/>
</svg>
