<svg width="31" height="30" viewBox="0 0 31 30" fill="none" xmlns="http://www.w3.org/2000/svg">
<path d="M16.55 20.2619L14.2224 20.2619C12.5757 20.2619 11.2262 18.8752 11.2262 17.1667C11.2262 16.659 11.6471 16.2381 12.1548 16.2381C12.6624 16.2381 13.0833 16.659 13.0833 17.1667C13.0833 17.8476 13.591 18.4047 14.2224 18.4047L16.55 18.4047C17.0328 18.4047 17.4167 17.9714 17.4167 17.439C17.4167 16.7705 17.231 16.6714 16.81 16.5228L13.0833 15.2228C12.291 14.9381 11.2262 14.3686 11.2262 12.5486C11.2262 11.0009 12.4519 9.72571 13.95 9.72571L16.2776 9.72571C17.9243 9.72571 19.2738 11.1124 19.2738 12.8209C19.2738 13.3286 18.8529 13.7495 18.3452 13.7495C17.8376 13.7495 17.4167 13.3286 17.4167 12.8209C17.4167 12.14 16.909 11.5829 16.2776 11.5829L13.95 11.5829C13.4672 11.5829 13.0833 12.0162 13.0833 12.5486C13.0833 13.2171 13.269 13.3162 13.69 13.4647L17.4167 14.7647C18.2091 15.0495 19.2738 15.619 19.2738 17.439C19.2738 18.999 18.0481 20.2619 16.55 20.2619Z" fill="white"/>
<path d="M15.25 21.4999C14.7424 21.4999 14.3214 21.079 14.3214 20.5714L14.3214 9.42851C14.3214 8.92089 14.7424 8.49994 15.25 8.49994C15.7576 8.49994 16.1786 8.92089 16.1786 9.42851L16.1786 20.5714C16.1786 21.079 15.7576 21.4999 15.25 21.4999Z" fill="white"/>
<path d="M15.25 28.3095C7.90805 28.3095 1.94043 22.3419 1.94043 15C1.94043 7.65811 7.90805 1.69049 15.25 1.69049C15.7576 1.69049 16.1785 2.11144 16.1785 2.61906C16.1785 3.12668 15.7576 3.54763 15.25 3.54763C8.93567 3.54763 3.79757 8.68573 3.79757 15C3.79757 21.3143 8.93567 26.4524 15.25 26.4524C21.5642 26.4524 26.7023 21.3143 26.7023 15C26.7023 14.4924 27.1233 14.0714 27.6309 14.0714C28.1385 14.0714 28.5595 14.4924 28.5595 15C28.5595 22.3419 22.5919 28.3095 15.25 28.3095Z" fill="white"/>
<path d="M27.631 8.50001C27.1233 8.50001 26.7024 8.07906 26.7024 7.57144L26.7024 3.54763L22.6786 3.54763C22.171 3.54763 21.75 3.12668 21.75 2.61906C21.75 2.11144 22.171 1.69049 22.6786 1.69049L27.631 1.69049C28.1386 1.69049 28.5595 2.11144 28.5595 2.61906L28.5595 7.57144C28.5595 8.07906 28.1386 8.50001 27.631 8.50001Z" fill="#FDFF96"/>
<path d="M21.4404 9.73806C21.2051 9.73806 20.9699 9.6514 20.7842 9.46568C20.4251 9.10663 20.4251 8.51235 20.7842 8.1533L26.9747 1.96283C27.3337 1.60378 27.928 1.60378 28.287 1.96283C28.6461 2.32188 28.6461 2.91616 28.287 3.27521L22.0966 9.46568C21.9108 9.6514 21.6756 9.73806 21.4404 9.73806Z" fill="#FDFF96"/>
</svg>
