<svg width="72" height="25" viewBox="0 0 72 25" fill="none" xmlns="http://www.w3.org/2000/svg">
<path fill-rule="evenodd" clip-rule="evenodd" d="M52.2472 1.92448L51.4245 6.81019C48.9579 5.41366 43.344 5.08324 43.344 7.65479C43.344 8.67663 44.6142 9.37939 46.1451 10.2264C48.4669 11.511 51.3884 13.1273 51.3884 16.6917C51.3884 22.3868 45.4536 24.48 41.5205 24.48C37.5875 24.48 35.0136 23.1949 35.0136 23.1949L35.8712 18.0877C38.2306 20.0343 45.3819 20.5868 45.3819 17.5004C45.3819 16.2037 43.9744 15.4388 42.3421 14.5519C40.0897 13.328 37.4092 11.8715 37.4092 8.4635C37.4092 2.21778 44.2022 0.932617 47.0627 0.932617C49.7088 0.932617 52.2472 1.92448 52.2472 1.92448ZM66.1872 24.0881H71.4801L66.8654 1.33905H62.2311C60.0913 1.33905 59.5702 3.03435 59.5702 3.03435L50.9738 24.0881H56.9821L58.1837 20.7091H65.5115L66.1872 24.0881ZM59.8444 16.0412L62.8731 7.52818L64.5769 16.0412H59.8444ZM15.3531 16.9863L20.8484 1.33972H27.0521L17.8813 24.0888H11.8754L6.86747 4.32566C3.61667 2.3188 0.837891 1.7249 0.837891 1.7249L0.944494 1.33972H10.0294C12.5293 1.33972 12.7638 3.38856 12.7638 3.38856L14.7034 13.6182L14.7028 13.617L15.3531 16.9863ZM25.6977 24.0881H31.462L35.0652 1.33972H29.3003L25.6977 24.0881Z" fill="white"/>
</svg>
